<?xml version="1.0" encoding="utf-8"?>
<!-- Generator: Adobe Illustrator 16.0.4, SVG Export Plug-In . SVG Version: 6.00 Build 0)  -->
<!DOCTYPE svg PUBLIC "-//W3C//DTD SVG 1.1//EN" "http://www.w3.org/Graphics/SVG/1.1/DTD/svg11.dtd">
<svg version="1.1" id="Layer_1" xmlns="http://www.w3.org/2000/svg" xmlns:xlink="http://www.w3.org/1999/xlink" x="0px" y="0px"
	 width="438.411px" height="87.836px" viewBox="149.295 241.722 438.411 87.836"
	 enable-background="new 149.295 241.722 438.411 87.836" xml:space="preserve">
<g>
	<path fill="#268A8C" d="M298.426,296.858c0,2.075-0.434,3.858-1.297,5.35c-0.867,1.491-2.055,2.713-3.568,3.664
		c-1.514,0.952-3.273,1.654-5.285,2.108c-2.01,0.454-4.139,0.681-6.387,0.681h-22.632v-46.042h26.718
		c1.598,0,3.047,0.347,4.344,1.038c1.297,0.692,2.4,1.589,3.309,2.691c0.906,1.103,1.609,2.357,2.107,3.761
		c0.496,1.405,0.746,2.843,0.746,4.312c0,2.163-0.553,4.227-1.654,6.193c-1.104,1.967-2.756,3.448-4.961,4.442
		c2.637,0.778,4.723,2.13,6.258,4.053C297.656,291.033,298.426,293.616,298.426,296.858z M271.902,273.383v7.068h8.625
		c0.863,0,1.652-0.237,2.367-0.713c0.713-0.476,1.07-1.427,1.07-2.854c0-1.253-0.305-2.15-0.908-2.691
		c-0.607-0.54-1.32-0.811-2.141-0.811L271.902,273.383L271.902,273.383z M285.586,294.264c0-1.124-0.305-2.064-0.908-2.821
		c-0.605-0.756-1.385-1.135-2.336-1.135h-10.439v7.717h9.986c1.037,0,1.914-0.325,2.627-0.973S285.586,295.475,285.586,294.264z"/>
	<path fill="#268A8C" d="M302.64,308.66v-46.042h12.645v46.042H302.64z"/>
	<path fill="#268A8C" d="M320.602,308.66v-46.042h12.646v35.018h20.881v11.024H320.602z"/>
	<path fill="#268A8C" d="M357.436,308.66v-46.042h12.646v35.018h20.881v11.024H357.436z"/>
	<path fill="#268A8C" d="M393.296,262.618l8.235,19.908l8.431-19.908h13.747l-15.888,30.803v15.239h-12.58v-15.369l-15.628-30.673
		H393.296L393.296,262.618z"/>
	<path opacity="0.5" fill="#268A8C" enable-background="new    " d="M425.395,308.66v-46.042h19.844
		c2.248,0,4.321,0.465,6.226,1.395c1.902,0.93,3.534,2.14,4.896,3.631c1.36,1.492,2.432,3.2,3.21,5.123
		c0.776,1.924,1.167,3.858,1.167,5.804c0,2.033-0.368,4.01-1.104,5.934c-0.734,1.924-1.762,3.631-3.08,5.123
		c-1.318,1.491-2.918,2.681-4.799,3.566c-1.881,0.887-3.945,1.33-6.193,1.33h-7.521v14.137L425.395,308.66L425.395,308.66z
		 M438.039,283.5h6.68c0.778,0,1.502-0.357,2.173-1.07c0.669-0.713,1.006-1.999,1.006-3.858c0-1.902-0.391-3.199-1.167-3.891
		c-0.778-0.691-1.558-1.038-2.336-1.038h-6.354L438.039,283.5L438.039,283.5z"/>
	<path opacity="0.5" fill="#268A8C" enable-background="new    " d="M497.115,297.636v11.024h-32.812v-46.042h32.229v11.024h-19.584
		v6.485h16.73v10.246h-16.73v7.263H497.115L497.115,297.636z"/>
	<path opacity="0.5" fill="#268A8C" enable-background="new    " d="M513.066,286.028v22.632h-12.646v-46.042h9.856l18.48,23.41
		v-23.41h12.646v46.042h-10.053L513.066,286.028z"/>
	<path opacity="0.5" fill="#268A8C" enable-background="new    " d="M559.368,286.028v22.632h-12.646v-46.042h9.856l18.48,23.41
		v-23.41h12.646v46.042h-10.052L559.368,286.028z"/>
</g>
<path fill="#268A8C" d="M225.072,329.558c-7.262-11.492-15.449-16.887-15.449-16.887l-0.486-0.488
	c-1.528-1.229-1.212-2.646-1.212-2.646c0.677-2.646,2.57-2.938,2.57-2.938c3.16-0.125,3.791-1.272,3.791-1.272
	c1.12-2.009,0.045-4.379,0.045-4.379c0.199-0.786,1.363-1.693,1.363-1.693c0.194-1.27-0.171-1.906-0.171-1.906
	c0.777-0.688,1.145-1.347,1.145-1.347c-0.196-1.669,0.239-2.912,0.239-2.912c0.389-0.49,2.141-0.49,2.141-0.49
	c1.94-0.979,0.676-3.04,0.676-3.04c-0.974-1.661-1.844-4.01-1.844-4.01c-0.909-2.316,1.844-5.978,1.844-5.978
	s12.339,4.115,16.222,0.296c0,0,3.11-3.721-4.563-9.106c0,0-5.15-3.918-15.444-4.506c0,0-0.969-6.463-1.358-8.616
	c0,0-1.262-4.603-7.773-6.17c0,0-6.605-2.348-14.861-0.781c0,0-6.021,0.581-8.646,4.696c0,0-1.26,2.546-1.553,6.658
	c0,0-13.113,2.453-19.914,10.091c0,0-10.491,11.063,14.181,10.87l1.411-0.103c0,0-3.257,3.578-3.06,10.43
	c0,0,0.119,4.95-4.837,9.944c0,0-3.921,3.058-2.973,10.422l0.048,0.582c0,0-3.407,3.123-6.251,6.397l-0.009-0.012
	c-6.901-8.34-11.049-19.045-11.049-30.723c0-26.629,21.594-48.22,48.226-48.22c26.634,0,48.222,21.591,48.222,48.22
	c0,16.409-8.196,30.899-20.713,39.614h0.042V329.558z"/>
</svg>
