<svg version="1.1" xmlns="http://www.w3.org/2000/svg" xmlns:xlink="http://www.w3.org/1999/xlink" width="453" height="347.5"><style xmlns="http://www.w3.org/1999/xhtml"></style><defs><linearGradient id="gnQUMchEelpD" x1="46.031px" x2="2.024799px" y1="1.941763px" y2="1.941763px" gradientUnits="userSpaceOnUse"><stop offset="0" stop-color="#FFFFFF"/><stop offset="1" stop-color="#aaaaaa"/></linearGradient><linearGradient id="DlXMWcvEymee" x1="47.90632px" x2="3.9px" y1="1.942018px" y2="1.942018px" gradientUnits="userSpaceOnUse"><stop offset="0" stop-color="#FFFFFF"/><stop offset="1" stop-color="#aaaaaa"/></linearGradient></defs><g transform="translate(0,0)"><g><rect fill="#FFFFFF" stroke="none" x="0" y="0" width="453" height="347.5"/></g><g transform="translate(0.5,0.5) matrix(1,0,0,1,166,230.5)"><g><g transform="translate(0,0) scale(0.9999833336111065,1.0079073972090316)"><g><path fill="#3966A0" stroke="rgb(0,0,0)" d="M 5.455 96.239 L 54.546 96.239 C 57.555 96.239 60.001 93.792 60.001 90.784 L 60.001 61.013 C 60.001 59.435 59.311 57.966 58.171 56.952 L 58.171 55.641 C 59.311 54.626 60.001 53.16 60.001 51.58 L 60.001 42.157 C 60.001 40.578 59.311 39.111 58.171 38.097 L 58.171 37.226 C 59.311 36.212 60.001 34.745 60.001 33.166 L 60.001 23.744 C 60.001 22.166 59.311 20.698 58.171 19.684 L 58.171 18.813 C 59.311 17.799 60.001 16.332 60.001 14.753 L 60.001 5.332 C 60.001 3.032 58.535 0.969 56.352 0.198 L 55.913 0.043 L 55.446 0.043 L 4.7 0 L 4.307 0 L 3.93 0.111 C 1.616 0.786 0 2.934 0 5.33 L 0 14.752 C 0 16.389 0.754 17.91 1.969 18.926 L 1.969 19.569 C 0.754 20.586 0 22.107 0 23.744 L 0 33.166 C 0 34.803 0.754 36.324 1.969 37.34 L 1.969 37.983 C 0.754 39 0 40.521 0 42.158 L 0 51.58 C 0 53.218 0.754 54.738 1.969 55.754 L 1.969 56.838 C 0.754 57.854 0 59.375 0 61.013 L 0 90.785 C 0 93.792 2.447 96.239 5.455 96.239 Z" stroke-opacity="0" stroke-miterlimit="10"/></g><g><path fill="#FFFFFF" stroke="rgb(0,0,0)" d="M 45.80200000000001 9.886 A 2.273 2.273 0 1 0 45.801998863500096 9.888272999621167 Z" opacity="0.5" stroke-opacity="0" stroke-miterlimit="10"/></g><g><path fill="#FFFFFF" stroke="rgb(0,0,0)" d="M 45.80200000000001 28.357 A 2.273 2.273 0 1 0 45.801998863500096 28.359272999621165 Z" opacity="0.5" stroke-opacity="0" stroke-miterlimit="10"/></g><g><path fill="#FFFFFF" stroke="rgb(0,0,0)" d="M 45.80200000000001 46.884 A 2.273 2.273 0 1 0 45.801998863500096 46.88627299962117 Z" opacity="0.5" stroke-opacity="0" stroke-miterlimit="10"/></g><g><path fill="#FFFFFF" stroke="rgb(0,0,0)" d="M 4.698 17.467 L 55.443 17.467 Q 55.443 17.467 55.443 17.467 L 55.443 21.004 Q 55.443 21.004 55.443 21.004 L 4.698 21.004 Q 4.698 21.004 4.698 21.004 L 4.698 17.467 Q 4.698 17.467 4.698 17.467 Z" opacity="0.25" stroke-opacity="0" stroke-miterlimit="10"/></g><g><path fill="#FFFFFF" stroke="rgb(0,0,0)" d="M 4.697 35.904 L 55.444 35.904 Q 55.444 35.904 55.444 35.904 L 55.444 39.441 Q 55.444 39.441 55.444 39.441 L 4.697 39.441 Q 4.697 39.441 4.697 39.441 L 4.697 35.904 Q 4.697 35.904 4.697 35.904 Z" opacity="0.25" stroke-opacity="0" stroke-miterlimit="10"/></g><g><path fill="#FFFFFF" stroke="rgb(0,0,0)" d="M 4.697 54.511 L 55.444 54.511 Q 55.444 54.511 55.444 54.511 L 55.444 58.048 Q 55.444 58.048 55.444 58.048 L 4.697 58.048 Q 4.697 58.048 4.697 58.048 L 4.697 54.511 Q 4.697 54.511 4.697 54.511 Z" opacity="0.25" stroke-opacity="0" stroke-miterlimit="10"/></g><g><g><path fill="#FFFFFF" stroke="rgb(0,0,0)" d="M 55.443 21.181 L 55.443 21.003 L 4.698 21.003 L 4.697 21.003 L 4.697 21.137 C 3.565 21.469 2.728 22.508 2.728 23.743 L 2.728 33.165 C 2.728 34.4 3.566 35.439 4.697 35.771 L 4.697 35.903 L 4.698 35.903 L 55.443 35.903 L 55.443 35.728 C 56.503 35.354 57.273 34.35 57.273 33.165 L 57.273 23.743 C 57.273 22.56 56.503 21.556 55.443 21.181 Z M 43.529 30.629 C 42.273 30.629 41.256 29.611 41.256 28.356 C 41.256 27.101 42.274 26.083 43.529 26.083 C 44.784 26.083 45.801 27.101 45.801 28.356 C 45.801 29.612 44.784 30.629 43.529 30.629 Z M 51.104 30.629 C 49.85 30.629 48.832 29.611 48.832 28.356 C 48.832 27.101 49.851 26.083 51.104 26.083 C 52.36 26.083 53.377 27.101 53.377 28.356 C 53.377 29.612 52.359 30.629 51.104 30.629 Z" opacity="0.8" stroke-opacity="0" stroke-miterlimit="10"/></g><g><path fill="#FFFFFF" stroke="rgb(0,0,0)" d="M 55.443 39.595 L 55.443 39.441 L 4.698 39.441 L 4.697 39.441 L 4.697 39.552 C 3.565 39.884 2.728 40.923 2.728 42.158 L 2.728 51.58 C 2.728 52.815 3.566 53.854 4.697 54.186 L 4.697 54.51 L 4.698 54.51 L 55.443 54.51 L 55.443 54.143 C 56.503 53.768 57.273 52.764 57.273 51.58 L 57.273 42.158 C 57.273 40.973 56.503 39.97 55.443 39.595 Z M 43.529 49.157 C 42.273 49.157 41.256 48.139 41.256 46.884 C 41.256 45.629 42.274 44.611 43.529 44.611 C 44.784 44.611 45.801 45.629 45.801 46.884 C 45.801 48.139 44.784 49.157 43.529 49.157 Z M 51.104 49.157 C 49.85 49.157 48.832 48.139 48.832 46.884 C 48.832 45.629 49.851 44.611 51.104 44.611 C 52.36 44.611 53.377 45.629 53.377 46.884 C 53.377 48.139 52.359 49.157 51.104 49.157 Z" opacity="0.8" stroke-opacity="0" stroke-miterlimit="10"/></g><g><path fill="#FFFFFF" stroke="rgb(0,0,0)" d="M 55.443 2.767 L 4.697 2.724 C 3.565 3.056 2.728 4.095 2.728 5.33 L 2.728 14.752 C 2.728 15.987 3.566 17.026 4.697 17.358 L 4.697 17.466 L 4.698 17.466 L 55.443 17.466 L 55.443 17.315 C 56.503 16.941 57.273 15.937 57.273 14.752 L 57.273 5.33 C 57.273 4.146 56.503 3.142 55.443 2.767 Z M 43.529 12.159 C 42.273 12.159 41.256 11.141 41.256 9.886 C 41.256 8.631 42.274 7.613 43.529 7.613 C 44.784 7.613 45.801 8.631 45.801 9.886 C 45.801 11.141 44.784 12.159 43.529 12.159 Z M 51.104 12.159 C 49.85 12.159 48.832 11.141 48.832 9.886 C 48.832 8.631 49.851 7.613 51.104 7.613 C 52.36 7.613 53.377 8.631 53.377 9.886 C 53.377 11.141 52.359 12.159 51.104 12.159 Z" opacity="0.8" stroke-opacity="0" stroke-miterlimit="10"/></g><g><path fill="#FFFFFF" stroke="rgb(0,0,0)" d="M 55.443 58.449 L 55.443 58.048 L 4.698 58.048 L 4.697 58.048 L 4.697 58.406 C 3.565 58.738 2.728 59.777 2.728 61.012 L 2.728 90.784 C 2.728 92.284 3.955 93.512 5.455 93.512 L 54.546 93.512 C 56.046 93.512 57.274 92.284 57.274 90.784 L 57.274 61.013 C 57.273 59.828 56.503 58.824 55.443 58.449 Z M 11.615 85.502 C 11.466 85.502 11.315 85.466 11.176 85.388 C 10.737 85.146 10.578 84.593 10.821 84.153 L 17.079 72.845 C 17.323 72.405 17.876 72.247 18.315 72.49 C 18.754 72.733 18.913 73.286 18.67 73.726 L 12.412 85.034 C 12.245 85.333 11.935 85.502 11.615 85.502 Z M 19.025 85.502 C 18.876 85.502 18.725 85.466 18.586 85.388 C 18.147 85.146 17.988 84.593 18.231 84.153 L 24.489 72.845 C 24.732 72.405 25.287 72.247 25.725 72.49 C 26.164 72.733 26.323 73.286 26.08 73.726 L 19.822 85.034 C 19.656 85.333 19.346 85.502 19.025 85.502 Z M 26.435 85.502 C 26.286 85.502 26.135 85.466 25.996 85.388 C 25.557 85.146 25.398 84.593 25.641 84.153 L 31.898 72.845 C 32.142 72.405 32.697 72.247 33.134 72.49 C 33.573 72.733 33.732 73.286 33.489 73.726 L 27.231 85.034 C 27.065 85.333 26.755 85.502 26.435 85.502 Z M 33.846 85.502 C 33.696 85.502 33.545 85.466 33.407 85.388 C 32.968 85.146 32.809 84.593 33.052 84.153 L 39.31 72.845 C 39.553 72.405 40.109 72.247 40.546 72.49 C 40.985 72.733 41.144 73.286 40.901 73.726 L 34.643 85.034 C 34.475 85.333 34.165 85.502 33.846 85.502 Z M 48.309 73.726 L 42.052 85.034 C 41.887 85.333 41.575 85.503 41.256 85.503 C 41.108 85.503 40.956 85.467 40.817 85.389 C 40.379 85.147 40.219 84.594 40.463 84.154 L 46.72 72.846 C 46.963 72.407 47.519 72.248 47.956 72.491 C 48.393 72.733 48.552 73.286 48.309 73.726 Z" opacity="0.8" stroke-opacity="0" stroke-miterlimit="10"/></g></g></g></g></g><g transform="translate(0.5,0.5) matrix(1,0,0,1,256,230.5)"><g><g transform="translate(0,0) scale(0.9999833336111065,1.0079073972090316)"><g><path fill="#3966A0" stroke="rgb(0,0,0)" d="M 5.455 96.239 L 54.546 96.239 C 57.555 96.239 60.001 93.792 60.001 90.784 L 60.001 61.013 C 60.001 59.435 59.311 57.966 58.171 56.952 L 58.171 55.641 C 59.311 54.626 60.001 53.16 60.001 51.58 L 60.001 42.157 C 60.001 40.578 59.311 39.111 58.171 38.097 L 58.171 37.226 C 59.311 36.212 60.001 34.745 60.001 33.166 L 60.001 23.744 C 60.001 22.166 59.311 20.698 58.171 19.684 L 58.171 18.813 C 59.311 17.799 60.001 16.332 60.001 14.753 L 60.001 5.332 C 60.001 3.032 58.535 0.969 56.352 0.198 L 55.913 0.043 L 55.446 0.043 L 4.7 0 L 4.307 0 L 3.93 0.111 C 1.616 0.786 0 2.934 0 5.33 L 0 14.752 C 0 16.389 0.754 17.91 1.969 18.926 L 1.969 19.569 C 0.754 20.586 0 22.107 0 23.744 L 0 33.166 C 0 34.803 0.754 36.324 1.969 37.34 L 1.969 37.983 C 0.754 39 0 40.521 0 42.158 L 0 51.58 C 0 53.218 0.754 54.738 1.969 55.754 L 1.969 56.838 C 0.754 57.854 0 59.375 0 61.013 L 0 90.785 C 0 93.792 2.447 96.239 5.455 96.239 Z" stroke-opacity="0" stroke-miterlimit="10"/></g><g><path fill="#FFFFFF" stroke="rgb(0,0,0)" d="M 45.80200000000001 9.886 A 2.273 2.273 0 1 0 45.801998863500096 9.888272999621167 Z" opacity="0.5" stroke-opacity="0" stroke-miterlimit="10"/></g><g><path fill="#FFFFFF" stroke="rgb(0,0,0)" d="M 45.80200000000001 28.357 A 2.273 2.273 0 1 0 45.801998863500096 28.359272999621165 Z" opacity="0.5" stroke-opacity="0" stroke-miterlimit="10"/></g><g><path fill="#FFFFFF" stroke="rgb(0,0,0)" d="M 45.80200000000001 46.884 A 2.273 2.273 0 1 0 45.801998863500096 46.88627299962117 Z" opacity="0.5" stroke-opacity="0" stroke-miterlimit="10"/></g><g><path fill="#FFFFFF" stroke="rgb(0,0,0)" d="M 4.698 17.467 L 55.443 17.467 Q 55.443 17.467 55.443 17.467 L 55.443 21.004 Q 55.443 21.004 55.443 21.004 L 4.698 21.004 Q 4.698 21.004 4.698 21.004 L 4.698 17.467 Q 4.698 17.467 4.698 17.467 Z" opacity="0.25" stroke-opacity="0" stroke-miterlimit="10"/></g><g><path fill="#FFFFFF" stroke="rgb(0,0,0)" d="M 4.697 35.904 L 55.444 35.904 Q 55.444 35.904 55.444 35.904 L 55.444 39.441 Q 55.444 39.441 55.444 39.441 L 4.697 39.441 Q 4.697 39.441 4.697 39.441 L 4.697 35.904 Q 4.697 35.904 4.697 35.904 Z" opacity="0.25" stroke-opacity="0" stroke-miterlimit="10"/></g><g><path fill="#FFFFFF" stroke="rgb(0,0,0)" d="M 4.697 54.511 L 55.444 54.511 Q 55.444 54.511 55.444 54.511 L 55.444 58.048 Q 55.444 58.048 55.444 58.048 L 4.697 58.048 Q 4.697 58.048 4.697 58.048 L 4.697 54.511 Q 4.697 54.511 4.697 54.511 Z" opacity="0.25" stroke-opacity="0" stroke-miterlimit="10"/></g><g><g><path fill="#FFFFFF" stroke="rgb(0,0,0)" d="M 55.443 21.181 L 55.443 21.003 L 4.698 21.003 L 4.697 21.003 L 4.697 21.137 C 3.565 21.469 2.728 22.508 2.728 23.743 L 2.728 33.165 C 2.728 34.4 3.566 35.439 4.697 35.771 L 4.697 35.903 L 4.698 35.903 L 55.443 35.903 L 55.443 35.728 C 56.503 35.354 57.273 34.35 57.273 33.165 L 57.273 23.743 C 57.273 22.56 56.503 21.556 55.443 21.181 Z M 43.529 30.629 C 42.273 30.629 41.256 29.611 41.256 28.356 C 41.256 27.101 42.274 26.083 43.529 26.083 C 44.784 26.083 45.801 27.101 45.801 28.356 C 45.801 29.612 44.784 30.629 43.529 30.629 Z M 51.104 30.629 C 49.85 30.629 48.832 29.611 48.832 28.356 C 48.832 27.101 49.851 26.083 51.104 26.083 C 52.36 26.083 53.377 27.101 53.377 28.356 C 53.377 29.612 52.359 30.629 51.104 30.629 Z" opacity="0.8" stroke-opacity="0" stroke-miterlimit="10"/></g><g><path fill="#FFFFFF" stroke="rgb(0,0,0)" d="M 55.443 39.595 L 55.443 39.441 L 4.698 39.441 L 4.697 39.441 L 4.697 39.552 C 3.565 39.884 2.728 40.923 2.728 42.158 L 2.728 51.58 C 2.728 52.815 3.566 53.854 4.697 54.186 L 4.697 54.51 L 4.698 54.51 L 55.443 54.51 L 55.443 54.143 C 56.503 53.768 57.273 52.764 57.273 51.58 L 57.273 42.158 C 57.273 40.973 56.503 39.97 55.443 39.595 Z M 43.529 49.157 C 42.273 49.157 41.256 48.139 41.256 46.884 C 41.256 45.629 42.274 44.611 43.529 44.611 C 44.784 44.611 45.801 45.629 45.801 46.884 C 45.801 48.139 44.784 49.157 43.529 49.157 Z M 51.104 49.157 C 49.85 49.157 48.832 48.139 48.832 46.884 C 48.832 45.629 49.851 44.611 51.104 44.611 C 52.36 44.611 53.377 45.629 53.377 46.884 C 53.377 48.139 52.359 49.157 51.104 49.157 Z" opacity="0.8" stroke-opacity="0" stroke-miterlimit="10"/></g><g><path fill="#FFFFFF" stroke="rgb(0,0,0)" d="M 55.443 2.767 L 4.697 2.724 C 3.565 3.056 2.728 4.095 2.728 5.33 L 2.728 14.752 C 2.728 15.987 3.566 17.026 4.697 17.358 L 4.697 17.466 L 4.698 17.466 L 55.443 17.466 L 55.443 17.315 C 56.503 16.941 57.273 15.937 57.273 14.752 L 57.273 5.33 C 57.273 4.146 56.503 3.142 55.443 2.767 Z M 43.529 12.159 C 42.273 12.159 41.256 11.141 41.256 9.886 C 41.256 8.631 42.274 7.613 43.529 7.613 C 44.784 7.613 45.801 8.631 45.801 9.886 C 45.801 11.141 44.784 12.159 43.529 12.159 Z M 51.104 12.159 C 49.85 12.159 48.832 11.141 48.832 9.886 C 48.832 8.631 49.851 7.613 51.104 7.613 C 52.36 7.613 53.377 8.631 53.377 9.886 C 53.377 11.141 52.359 12.159 51.104 12.159 Z" opacity="0.8" stroke-opacity="0" stroke-miterlimit="10"/></g><g><path fill="#FFFFFF" stroke="rgb(0,0,0)" d="M 55.443 58.449 L 55.443 58.048 L 4.698 58.048 L 4.697 58.048 L 4.697 58.406 C 3.565 58.738 2.728 59.777 2.728 61.012 L 2.728 90.784 C 2.728 92.284 3.955 93.512 5.455 93.512 L 54.546 93.512 C 56.046 93.512 57.274 92.284 57.274 90.784 L 57.274 61.013 C 57.273 59.828 56.503 58.824 55.443 58.449 Z M 11.615 85.502 C 11.466 85.502 11.315 85.466 11.176 85.388 C 10.737 85.146 10.578 84.593 10.821 84.153 L 17.079 72.845 C 17.323 72.405 17.876 72.247 18.315 72.49 C 18.754 72.733 18.913 73.286 18.67 73.726 L 12.412 85.034 C 12.245 85.333 11.935 85.502 11.615 85.502 Z M 19.025 85.502 C 18.876 85.502 18.725 85.466 18.586 85.388 C 18.147 85.146 17.988 84.593 18.231 84.153 L 24.489 72.845 C 24.732 72.405 25.287 72.247 25.725 72.49 C 26.164 72.733 26.323 73.286 26.08 73.726 L 19.822 85.034 C 19.656 85.333 19.346 85.502 19.025 85.502 Z M 26.435 85.502 C 26.286 85.502 26.135 85.466 25.996 85.388 C 25.557 85.146 25.398 84.593 25.641 84.153 L 31.898 72.845 C 32.142 72.405 32.697 72.247 33.134 72.49 C 33.573 72.733 33.732 73.286 33.489 73.726 L 27.231 85.034 C 27.065 85.333 26.755 85.502 26.435 85.502 Z M 33.846 85.502 C 33.696 85.502 33.545 85.466 33.407 85.388 C 32.968 85.146 32.809 84.593 33.052 84.153 L 39.31 72.845 C 39.553 72.405 40.109 72.247 40.546 72.49 C 40.985 72.733 41.144 73.286 40.901 73.726 L 34.643 85.034 C 34.475 85.333 34.165 85.502 33.846 85.502 Z M 48.309 73.726 L 42.052 85.034 C 41.887 85.333 41.575 85.503 41.256 85.503 C 41.108 85.503 40.956 85.467 40.817 85.389 C 40.379 85.147 40.219 84.594 40.463 84.154 L 46.72 72.846 C 46.963 72.407 47.519 72.248 47.956 72.491 C 48.393 72.733 48.552 73.286 48.309 73.726 Z" opacity="0.8" stroke-opacity="0" stroke-miterlimit="10"/></g></g></g></g></g><g transform="translate(0,0) matrix(1,0,0,1,333,237)"><g><g transform="translate(0,0) scale(2,2.622377622377622)"><g><path fill="#3399FF" stroke="rgb(0,0,0)" d="M 34.229 28.7 C 33.229 28.7 32.229 28.099 31.628 27.3 C 31.128 26.6 30.929 25.7 30.929 24.7 L 30.929 21.7 L 4.529 21.7 C 2.129 21.7 0.129 19.7 0.129 17.3 L 0.129 11.4 C 0.129 9 2.129 7 4.529 7 L 30.929 7 L 30.929 4 C 30.929 1.2 32.628 0 34.229 0 C 35.229 0 36.128 0.399 37.029 1.3 L 48.129 11.1 C 50.629 13.3 50.529 15.5 47.529 18.3 L 47.529 18.3 L 37.129 27.5 C 36.129 28.3 35.229 28.7 34.229 28.7 L 34.229 28.7 Z" stroke-opacity="0" stroke-miterlimit="10"/></g><g><path fill="rgb(0,0,0)" stroke="rgb(0,0,0)" d="M 33.671 25.1 L 33.671 20.7 L 6.671 20.7 C 4.971 20.7 3.071 19.2 3.071 17.399 L 3.071 12.2 C 3.071 10.2 4.47 9.599 6.771 9.599 L 34.971 9.7 L 34.971 5.4 C 34.971 3.001 34.871 2.6 35.772 2.4 C 36.772 2.3 37.372 3.3 38.272 4.001 C 38.272 4.001 46.671 11.701 47.772 12.801 C 48.872 13.901 49.171 15.501 48.272 16.301 L 37.971 25.501 C 35.171 28.1 33.771 26.4 33.671 25.1 Z" fill-opacity="0.3" stroke-opacity="0" stroke-miterlimit="10"/></g><g><path fill="url(#gnQUMchEelpD)" stroke="rgb(0,0,0)" d="M 2.031 11.5 L 2.031 17.4 C 2.031 18.701 3.132 19.8 4.431 19.8 L 32.731 19.8 L 32.731 24.7 C 32.731 26.8 34.031 27.399 35.631 26 L 46.031 16.9 C 48.531 14.4 48.531 14.3 46.031 11.8 L 35.632 2.7 C 34.031 1.3 32.732 1.899 32.732 4 L 32.732 9 L 4.432 9 C 3.031 9 1.932 10 2.031 11.5 Z" stroke-opacity="0" stroke-miterlimit="10"/></g></g></g></g><g transform="translate(0,0) matrix(1,0,0,1,47,237)"><g><g transform="translate(0,0) scale(2,2.622377622377622)"><g><path fill="#3399FF" stroke="rgb(0,0,0)" d="M 15.8 28.7 C 14.8 28.7 13.9 28.3 12.9 27.5 L 2.5 18.3 L 2.5 18.3 C -0.5 15.5 -0.6 13.3 1.9 11.1 L 13 1.3 C 13.9 0.4 14.8 0 15.8 0 C 17.4 0 19.1 1.2 19.1 4 L 19.1 7 L 45.5 7 C 47.9 7 49.9 9 49.9 11.4 L 49.9 17.3 C 49.9 19.7 47.9 21.7 45.5 21.7 L 19.1 21.7 L 19.1 24.7 C 19.1 25.7 18.9 26.6 18.4 27.3 C 17.8 28.1 16.8 28.7 15.8 28.7 L 15.8 28.7 Z" stroke-opacity="0" stroke-miterlimit="10"/></g><g><path fill="rgb(0,0,0)" stroke="rgb(0,0,0)" d="M 13.9 25.5 L 3.6 16.3 C 2.7 15.5 3 13.9 4.1 12.8 C 5.2 11.7 13.6 4 13.6 4 C 14.5 3.3 15.1 2.3 16.1 2.4 C 17 2.6 16.9 3 16.9 5.4 L 16.9 9.7 L 45.1 9.6 C 47.4 9.6 48.8 10.2 48.8 12.2 L 48.8 17.4 C 48.8 19.2 46.9 20.7 45.2 20.7 L 18.2 20.7 L 18.2 25.1 C 18.1 26.4 16.7 28.1 13.9 25.5 Z" fill-opacity="0.3" stroke-opacity="0" stroke-miterlimit="10"/></g><g><path fill="url(#DlXMWcvEymee)" stroke="rgb(0,0,0)" d="M 45.5 9 L 17.2 9 L 17.2 4 C 17.2 1.9 15.9 1.3 14.3 2.7 L 3.9 11.8 C 1.4 14.3 1.4 14.4 3.9 16.9 L 14.3 26 C 15.9 27.4 17.2 26.8 17.2 24.7 L 17.2 19.8 L 45.5 19.8 C 46.8 19.8 47.9 18.7 47.9 17.4 L 47.9 11.5 C 48 10 46.9 9 45.5 9 Z" stroke-opacity="0" stroke-miterlimit="10"/></g></g></g></g></g></svg>