<svg xmlns="http://www.w3.org/2000/svg" width="800" height="160" viewBox="-180.794 -36.082 800 160"><path fill="#F05529" d="M453.652 112.435l111.498-65.32.435-.243c-1.348 41.392-35.324 74.582-77.054 74.582-12.85 0-24.838-3.088-35.491-8.648l.612-.371zM447.045 108.751l17.29-10.248c-6.397-3.609-7.13-10.03-7.13-10.03h-7.423V11.668h-6.646c-.569-15.12 10.914-14.447 10.914-14.447h94.825l.62-.015c-14.104-18.153-36.188-29.917-60.966-29.917-42.585 0-77.11 34.511-77.11 77.082 0 27.215 13.946 50.877 35.25 64.594l.376-.214z"/><path fill="#F05529" d="M472.726 37.292V19.63c0-2.028-2.083-3.682-4.636-3.682h-7.307c-2.552 0-4.636 1.654-4.636 3.682v17.662h16.579zM495.942 37.292V19.63c0-2.028-2.086-3.682-4.635-3.682h-7.311c-2.549 0-4.635 1.654-4.635 3.682v17.662h16.581zM519.155 37.292V19.63c0-2.028-2.083-3.682-4.631-3.682h-7.311c-2.553 0-4.636 1.654-4.636 3.682v17.662h16.578zM542.375 37.292V19.63c0-2.028-2.088-3.682-4.636-3.682h-7.314c-2.545 0-4.632 1.654-4.632 3.682v17.662h16.582zM565.312 37.288c-.69-7.516-2.459-14.596-5.154-21.332l-.402-.007h-6.114c-2.548 0-4.635 1.654-4.635 3.682v17.663h15.902l.403-.006zM490.383 57.802l-.05 25.251 30.996-18.749s-3.799-1.79-5.385-6.502h-25.561z"/><g><g fill="#F05529"><path d="M11.035 75.336v-70.8h19.444v70.803H11.035v-.003zM60.096 40.533v34.803H40.65v-70.8h15.16l28.419 35.999V4.536h19.445v70.803H88.217L60.096 40.533zM109.956 39.337c0-4.319.763-8.575 2.293-12.765a34.68 34.68 0 0 1 6.733-11.269c2.957-3.323 6.545-6.016 10.77-8.078 4.219-2.059 9.022-3.091 14.411-3.091 6.312 0 11.832 1.412 16.552 4.237 4.719 2.828 8.21 6.566 10.47 11.218l-14.858 10.57c-.599-1.729-1.383-3.157-2.345-4.289-.964-1.129-2.011-2.028-3.141-2.692a11.957 11.957 0 0 0-3.59-1.397c-1.264-.265-2.428-.4-3.49-.4-2.461 0-4.571.549-6.334 1.646a14.214 14.214 0 0 0-4.387 4.287c-1.162 1.763-2.013 3.758-2.542 5.985a28.456 28.456 0 0 0-.798 6.63c0 2.461.315 4.82.945 7.081.632 2.261 1.562 4.257 2.794 5.983 1.229 1.729 2.728 3.109 4.486 4.14 1.76 1.031 3.773 1.546 6.035 1.546 1.129 0 2.293-.15 3.491-.448a11.646 11.646 0 0 0 3.438-1.499c1.098-.696 2.094-1.594 2.99-2.691.9-1.095 1.612-2.441 2.145-4.038l15.858 9.478c-.997 2.593-2.509 4.922-4.538 6.982a28.902 28.902 0 0 1-6.93 5.186 35.497 35.497 0 0 1-8.277 3.19c-2.925.731-5.786 1.099-8.576 1.099-4.919 0-9.441-1.048-13.56-3.145-4.125-2.094-7.665-4.867-10.62-8.326-2.96-3.455-5.271-7.377-6.93-11.767-1.665-4.387-2.495-8.842-2.495-13.363zM177.167 75.336v-70.8h19.446v53.851h32.108v16.952h-51.555v-.003zM233.806 75.336v-70.8h19.445v70.803h-19.445v-.003zM282.868 40.533v34.803h-19.445v-70.8h15.156l28.423 35.999V4.536h19.446v70.803H310.99l-28.122-34.806zM387.074 58.383v16.953h-50.455v-70.8h49.558v16.953h-30.112v9.972h25.727v15.757h-25.727v11.169h31.01v-.004z"/><g opacity=".75"><path d="M-122.957 12.513h-24.433v62.823h-8.974V12.513h-24.432V4.536h57.838v7.977zM-59.736 4.536v70.803h-8.974V43.127h-38.989v32.211h-8.977V4.536h8.974V35.15h38.993V4.536h8.973zM1.293 67.36v7.976h-48.064v-70.8H.396v7.977h-38.194v22.935h33.207v7.479h-33.207v24.432H1.293v.001z"/></g></g></g></svg>